<?xml version="1.0" encoding="utf-8"?>
<!-- Generator: Adobe Illustrator 19.2.0, SVG Export Plug-In . SVG Version: 6.00 Build 0)  -->
<svg version="1.1" id="Layer_1" xmlns="http://www.w3.org/2000/svg" xmlns:xlink="http://www.w3.org/1999/xlink" x="0px" y="0px"
	 viewBox="0 0 249 318.7" style="enable-background:new 0 0 249 318.7;" xml:space="preserve">
<style type="text/css">
	.st0{fill:#FFFFFF;}
</style>
<g>
	<path class="st0" d="M187.3,297.4c-3.4,0-6.1,2.7-6.1,6.1c0,1.5,0.8,2.8,2.1,3.4c0.2,0.1,0.5,0.2,0.6,0.2c0.3,0.1,0.6,0.1,0.9,0.1
		c1.9,0,3.5-1.6,3.5-3.5c0-0.5-0.1-1-0.3-1.5c1.6,0.4,2.8,1.8,2.8,3.5c0,4-3.3,7.3-7.3,7.3c-3.3,0-13.2,0-13.2-20.6c0-9.6,0-55,0-55
		l-4.8,1.8c0,0,0,47.8,0,53.2c0,16.3,6.4,25.3,17.9,25.3c6.6,0,12-5.4,12-12C195.6,301.1,191.9,297.4,187.3,297.4z"/>
	<g>
		<path class="st0" d="M141.6,68.2L141.6,68.2h-2h-8.7v0.1v48.2h34.9V92.3C165.8,79,154.9,68.2,141.6,68.2z"/>
		<path class="st0" d="M202.4,45.7c-20.8-20.8-48.5-32.3-77.9-32.3S67.4,24.9,46.6,45.7s-32.3,48.5-32.3,77.9s11.5,57.1,32.3,77.9
			s48.5,32.3,77.9,32.3c14.4,0,28.3-2.7,41.2-7.9c0-21.6,0.1-70.3,0.1-80.5v-24.2h-34.9v36.3c0,9.5-4.7,18.3-12.5,23.8l-1.4,1v13.9
			h11h2v2v0.7v2h-2h-26.6h-2v-2v-0.7v-2h2h10.9v-11.6c-3.3,1.3-6.8,1.9-10.3,1.9c-15.9,0-28.9-13-28.9-28.9v-2h2h0.7h2v2
			c0,13.3,10.8,24.2,24.2,24.2c3.3,0,6.4-0.6,9.4-1.9l0.9-0.4v-60.6V65.4v-2h2h11.8v-0.3v-9.4h-25.6c-12.5,0-22.7,10.2-22.7,22.7
			c0,7.3,5.9,13.2,13.2,13.2c4,0,7.3-3.3,7.3-7.3c0-1.7-1.2-3.2-2.8-3.5c0.2,0.4,0.3,0.9,0.3,1.5c0,1.9-1.6,3.5-3.5,3.5
			c-0.1,0-0.3,0-0.4,0h-0.2l-0.2-0.1l0,0c-0.1,0-0.4-0.1-0.6-0.2c-1.3-0.6-2.1-1.9-2.1-3.4c0-3.4,2.7-6.1,6.1-6.1
			c4.6,0,8.4,3.7,8.4,8.4c0,6.6-5.4,12-12,12c-9.9,0-17.9-8-17.9-17.9c0-15.2,12.3-27.5,27.5-27.5h28.4h2v2v12.2v0.3h8.7h2l0,0h2
			v0.1c15,1,26.9,13.6,26.9,28.8v53.1c0,9.9,0,56.1-0.1,78.4c11.7-5.4,22.6-12.9,32-22.3c20.8-20.8,32.3-48.5,32.3-77.9
			C234.7,94.2,223.3,66.5,202.4,45.7z"/>
		<path class="st0" d="M117.1,121.3v55.2c5.7-4.6,9.1-11.6,9.1-18.9v-36.3H126H117.1z"/>
		<polygon class="st0" points="126.2,68.3 126.2,68.2 117.1,68.2 117.1,116.5 126,116.5 126.2,116.5 		"/>
	</g>
	<g>
		<path class="st0" d="M124.5,0.9C56.7,0.9,1.8,55.9,1.8,123.6c0,67.8,54.9,122.7,122.7,122.7c14.4,0,28.3-2.5,41.2-7.1v-2.9
			c0-0.1,0-2,0-5.1c-12.8,4.9-26.7,7.6-41.2,7.6c-63.6,0-115.2-51.6-115.2-115.2C9.3,60,60.9,8.4,124.5,8.4S239.7,60,239.7,123.6
			c0,47.3-28.5,87.9-69.3,105.7c0,4.1,0,6.6,0,6.7v1.4c45-18.2,76.7-62.3,76.7-113.8C247.2,55.9,192.3,0.9,124.5,0.9z"/>
	</g>
</g>
</svg>
